<?xml version="1.0" encoding="UTF-8"?>
<!DOCTYPE svg PUBLIC "-//W3C//DTD SVG 1.1//EN" "http://www.w3.org/Graphics/SVG/1.1/DTD/svg11.dtd">
<!-- Creator: CorelDRAW 2018 (64-Bit Evaluation Version) -->
<svg xmlns="http://www.w3.org/2000/svg" xml:space="preserve" width="0.541693in" height="0.552075in" version="1.1" shape-rendering="geometricPrecision" text-rendering="geometricPrecision" image-rendering="optimizeQuality" fill-rule="evenodd" clip-rule="evenodd"
viewBox="0 0 205.24 209.18"
 xmlns:xlink="http://www.w3.org/1999/xlink">
 <g id="Layer_x0020_1">
  <metadata id="CorelCorpID_0Corel-Layer"/>
  <path fill="none" stroke="white" stroke-width="13.16" stroke-linecap="round" stroke-linejoin="round" stroke-miterlimit="2.61313" d="M43.05 41.08l27.77 0 -0 0.03 -0 0.09 -0 0.12 -0 0.12 -0 0.11 -0 0.11 -0 0.01 0 0.1 -0 0.11 -0 0.11 -0 0.11 0 0.11 -0 0 0 0.1 0 0.1 -0 0.1 0 0.1 0 0.1 0 0.1 0 0.1 0 0.09 0 0.09 0 0.08 0 0.01 0 0.09 0 0.09 0 0.08 0 0.08 0 0.06 0 0.02 0 0.08 0 0.08 0 0.08 0 0.07 0 0.05 0 0.03 0 0.07 0 0.07 0 0.07 0 0.07 0 0.03 0 0.03 0 0.06 0 0.06 0 0.06 0 0.06 0 0.02 0 0.03 0 0.05 0 0.05 0 0.05 0 0.04 0 0.02 0 0.03 0 0.04 0 0.04 0 0.04 0 0.03 0 0.01 0 0.02 0 0.03 0 0.03 0 0.03 0 0.02 0 0 0 0.02 0 0.02 0 0.02 0 0.01 0 0.01 0 0.01 0 0.01 0 0 0 0 0 0 0 0 0 14.38 0 -14.38 0 -0 0 -0 0 -0 -0 -0 0 -0.01 -0 -0.01 0 -0.01 -0 -0.01 -0 -0.02 -0 -0.02 0 -0.02 -0 -0 -0 -0.02 -0 -0.03 -0 -0.03 -0 -0.03 -0 -0.02 -0 -0.01 -0 -0.03 -0 -0.04 -0 -0.04 -0 -0.04 -0 -0.03 0 -0.02 -0 -0.04 -0 -0.05 -0 -0.05 -0 -0.05 -0 -0.03 -0 -0.02 -0 -0.06 -0 -0.06 -0 -0.06 -0 -0.06 -0 -0.03 0 -0.03 -0 -0.07 -0 -0.07 -0 -0.07 -0 -0.07 -0 -0.03 -0 -0.05 -0 -0.07 -0 -0.08 -0 -0.08 -0 -0.08 -0 -0.02 0 -0.06 -0 -0.08 -0 -0.08 -0 -0.09 0 -0.09 -0 -0.01 0 -0.08 0 -0.09 -0 -0.09 0 -0.1 0 -0.1 0 -0.1 0 -0.1 0 -0.1 0 -0.1 0 -0.1 0 -0 0 -0.11 0 -0.11 0 -0.11 0 -0.11 0 -0.1 0 -0.01 0 -0.11 0 -0.11 0 -0.12 0 -0.12 0 -0.09 0 -0.03 61.05 0 -0 0.07 -0 0.04 -0 0.03 -0 0.07 -0 0.07 -0 0.07 -0 0.07 -0 0.07 -0 0.06 -0 0.01 -0 0.07 -0 0.07 -0 0.06 -0 0.06 -0 0.06 -0 0.06 0 0 -0 0.06 -0 0.06 -0 0.06 -0 0.06 -0 0.06 -0 0.06 0 0.02 -0 0.04 -0 0.05 -0 0.05 -0 0.05 -0 0.05 -0 0.05 -0 0.03 -0 0.02 -0 0.05 -0 0.04 -0 0.04 -0 0.04 -0 0.04 -0 0.03 -0 0.01 -0 0.04 -0 0.04 -0 0.04 -0 0.04 -0 0.03 -0 0.03 0 0 -0 0.03 -0 0.03 -0 0.03 -0 0.03 -0 0.03 -0 0.03 0 0.01 -0 0.02 -0 0.02 -0 0.02 -0 0.02 -0 0.02 -0 0.02 -0 0.01 -0 0.01 -0 0.02 -0 0.01 -0 0.01 -0 0.01 -0 0.01 -0 0.01 0 0 -0 0.01 0 0 -0 0.01 0 0 0 15.94 0 -15.94 0 -0 0 -0.01 0 -0 0 -0.01 0 -0 0 -0.01 0 -0.01 0 -0.01 0 -0.01 0 -0.01 0 -0.02 0 -0.01 0 -0.01 0 -0.02 0 -0.02 0 -0.02 0 -0.02 0 -0.02 0 -0.02 0 -0.01 0 -0.03 0 -0.03 0 -0.03 0 -0.03 0 -0.03 0 -0.03 0 -0 0 -0.03 0 -0.03 0 -0.04 0 -0.04 0 -0.04 0 -0.04 0 -0.01 0 -0.03 0 -0.04 0 -0.04 0 -0.04 0 -0.04 0 -0.05 0 -0.02 0 -0.03 0 -0.05 0 -0.05 0 -0.05 0 -0.05 0 -0.05 0 -0.04 0 -0.02 0 -0.06 0 -0.06 0 -0.06 0 -0.06 0 -0.06 0 -0.06 0 -0 0 -0.06 0 -0.06 0 -0.06 0 -0.06 0 -0.07 0 -0.07 0 -0.01 0 -0.06 0 -0.07 0 -0.07 0 -0.07 0 -0.07 0 -0.07 0 -0.03 0 -0.04 0 -0.07 30.32 0c0.54,0 1.07,0.02 1.61,0.07 0.54,0.05 1.07,0.12 1.6,0.22 0.53,0.1 1.05,0.22 1.57,0.36 0.52,0.14 1.03,0.31 1.53,0.5 0.5,0.19 1,0.4 1.48,0.63 0.49,0.23 0.96,0.49 1.42,0.76 0.46,0.28 0.91,0.57 1.35,0.89 0.44,0.32 0.86,0.65 1.27,1.01 0.41,0.35 0.8,0.72 1.17,1.11 0.37,0.39 0.73,0.79 1.07,1.21 0.34,0.42 0.66,0.85 0.96,1.3 0.3,0.45 0.58,0.91 0.84,1.38 0.26,0.47 0.5,0.96 0.71,1.45 0.21,0.49 0.41,0.99 0.58,1.51 0.17,0.51 0.31,1.03 0.44,1.55 0.12,0.52 0.22,1.05 0.3,1.58l18.42 130.45c0.07,0.53 0.12,1.06 0.15,1.58 0.03,0.52 0.03,1.04 0,1.55 -0.03,0.51 -0.07,1.01 -0.15,1.51 -0.07,0.49 -0.17,0.98 -0.3,1.45 -0.12,0.47 -0.27,0.93 -0.45,1.38 -0.17,0.45 -0.37,0.88 -0.59,1.3 -0.22,0.42 -0.46,0.82 -0.72,1.21 -0.27,0.39 -0.55,0.76 -0.86,1.11 -0.31,0.36 -0.64,0.69 -0.98,1.01 -0.35,0.32 -0.72,0.61 -1.1,0.89 -0.38,0.28 -0.79,0.53 -1.21,0.76 -0.42,0.23 -0.85,0.45 -1.31,0.63 -0.45,0.19 -0.92,0.36 -1.39,0.5 -0.48,0.14 -0.97,0.26 -1.47,0.36 -0.5,0.1 -1.01,0.17 -1.53,0.22 -0.52,0.05 -1.05,0.07 -1.59,0.07l-164.75 0c-0.54,0 -1.07,-0.02 -1.59,-0.07 -0.52,-0.05 -1.03,-0.12 -1.53,-0.22 -0.5,-0.1 -0.99,-0.22 -1.47,-0.36 -0.48,-0.14 -0.94,-0.31 -1.39,-0.5 -0.45,-0.19 -0.89,-0.4 -1.31,-0.63 -0.42,-0.23 -0.82,-0.49 -1.21,-0.76 -0.38,-0.28 -0.75,-0.57 -1.1,-0.89 -0.35,-0.32 -0.68,-0.65 -0.98,-1.01 -0.31,-0.35 -0.59,-0.72 -0.86,-1.11 -0.26,-0.39 -0.51,-0.79 -0.73,-1.21 -0.22,-0.42 -0.41,-0.85 -0.59,-1.3 -0.17,-0.45 -0.32,-0.91 -0.45,-1.38 -0.12,-0.47 -0.22,-0.96 -0.3,-1.45 -0.07,-0.49 -0.13,-0.99 -0.15,-1.51 -0.03,-0.51 -0.03,-1.03 -0,-1.55 0.03,-0.52 0.08,-1.05 0.15,-1.58l18.42 -130.45c0.07,-0.53 0.17,-1.06 0.3,-1.58 0.12,-0.52 0.27,-1.04 0.44,-1.55 0.17,-0.51 0.36,-1.01 0.57,-1.51 0.21,-0.49 0.45,-0.98 0.71,-1.45 0.26,-0.47 0.54,-0.93 0.84,-1.38 0.3,-0.45 0.62,-0.88 0.96,-1.3 0.34,-0.42 0.7,-0.82 1.07,-1.21 0.37,-0.39 0.77,-0.76 1.17,-1.11 0.41,-0.36 0.83,-0.69 1.27,-1.01 0.44,-0.32 0.89,-0.61 1.35,-0.89 0.46,-0.28 0.94,-0.53 1.42,-0.76 0.49,-0.23 0.98,-0.45 1.49,-0.63 0.5,-0.19 1.02,-0.36 1.53,-0.5 0.52,-0.14 1.04,-0.26 1.57,-0.36 0.53,-0.1 1.06,-0.17 1.59,-0.22 0.54,-0.05 1.07,-0.07 1.61,-0.07zm27.82 18.54l-0.11 0.02 -0.01 0 -0.06 0.01 -0.06 0.01 -0.08 0.02 -0.05 0.01 -0.09 0.02 -0.03 0.01 -0.1 0.03 -0.02 0.01 -0.12 0.03 -0 0 -0.12 0.04 -0.01 0 -0.11 0.04 -0.02 0.01 -0.09 0.04 -0.12 0.05 -0.05 0.02 -0.06 0.03 -0.06 0.03 -0.05 0.02 -0.07 0.03 -0.04 0.02 -0.09 0.04 -0.02 0.01 -0.1 0.05 -0.01 0.01 -0.11 0.06 -0.21 0.13 -0.03 0.01 -0.08 0.05c-0.1,0.07 -0.2,0.14 -0.3,0.22l-0.07 0.05 -0.03 0.02 -0.08 0.06 -0.02 0.01 -0.09 0.07 -0.01 0.01 -0.16 0.15 -0.02 0.02 -0.01 0.01 -0.07 0.07 -0.03 0.03 -0.06 0.06 -0.04 0.04 -0.05 0.05 -0.04 0.05 -0.04 0.04 -0.08 0.09 -0.06 0.07 -0.02 0.02 -0.07 0.08 -0.01 0.01 -0.15 0.2 -0.01 0.01 -0.06 0.09 -0.01 0.02 -0.05 0.08 -0.02 0.03 -0.04 0.07 -0.03 0.05 -0.03 0.06 -0.04 0.06 -0.03 0.05 -0.04 0.07 -0.02 0.03 -0.05 0.09 -0.01 0.02 -0.05 0.1 -0 0.01 -0.05 0.11 -0 0 -0.05 0.11 -0.01 0.02 -0.04 0.1 -0.01 0.03 -0.03 0.09 -0.02 0.04 -0.03 0.07 -0.02 0.06 -0.02 0.06 -0.02 0.07 -0.01 0.05 -0.03 0.09 -0.01 0.03 -0.03 0.1 -0 0.02 -0.03 0.12 -0 0 -0.03 0.13 -0 0.01 -0.02 0.12 -0 0.02 -0.02 0.1 -0.01 0.04 -0.01 0.09 -0.01 0.05 -0.01 0.08 -0.01 0.07 -0.01 0.06 -0.01 0.09 -0 0.05 -0.01 0.1 -0 0.03 -0 0.12 0 0.02 -0 0.13c0,3.19 2.55,5.77 5.7,5.77l0.12 -0 0.03 0 0.09 -0 0.06 -0 0.06 -0 0.09 -0.01 0.03 -0 0.12 -0.01 0.11 -0.01 0.03 -0 0.09 -0.01 0.06 -0.01 0.06 -0.01 0.09 -0.01 0.03 -0.01 0.11 -0.02 0 -0 0.11 -0.02 0.03 -0.01 0.08 -0.02 0.06 -0.01 0.05 -0.01 0.08 -0.02 0.03 -0.01 0.11 -0.03 0 0 0.11 -0.03 0.03 -0.01 0.08 -0.03 0.05 -0.02 0.05 -0.02 0.08 -0.03 0.02 -0.01 0.1 -0.04 0 0 0.1 -0.04 0.03 -0.01 0.07 -0.03 0.05 -0.02 0.05 -0.02 0.07 -0.04 0.02 -0.01 0.1 -0.05 0 -0 0.1 -0.05 0.03 -0.01 0.07 -0.04 0.05 -0.03 0.04 -0.03 0.07 -0.04 0.02 -0.01 0.09 -0.06 0 0 0.09 -0.06 0.02 -0.02 0.06 -0.05 0.05 -0.03 0.04 -0.03 0.07 -0.05 0.02 -0.02 0.09 -0.07 0 -0 0.08 -0.07 0.02 -0.02 0.06 -0.05 0.08 -0.07 0.06 -0.06 0.02 -0.02 0.16 -0.16 0.02 -0.02 0.05 -0.06 0.04 -0.04 0.03 -0.04 0.06 -0.06 0.02 -0.02 0.07 -0.09 0 -0 0.07 -0.09 0.13 -0.18 0.05 -0.07 0.01 -0.02 0.06 -0.09 0 -0 0.06 -0.09 0.02 -0.03 0.04 -0.07 0.03 -0.05 0.03 -0.04 0.04 -0.07 0.01 -0.02 0.05 -0.1 0 -0 0.05 -0.1 0.01 -0.03 0.04 -0.07 0.03 -0.05 0.02 -0.05 0.04 -0.08 0.01 -0.02 0 -0 0.09 -0.21 0.01 -0.03 0.03 -0.08 0.02 -0.06 0.02 -0.05 0.03 -0.08 0.01 -0.02 0.01 -0.03 0.01 -0.03 0.01 -0.03 0.01 -0.03 0 -0 0.01 -0.05 0.01 -0.03 0.01 -0.03 0.01 -0.03 0 -0 0.01 -0.03 0.01 -0.03 0.01 -0.03 0.01 -0.03 0.01 -0.03 0 -0 0.01 -0.05 0.01 -0.03 0.01 -0.03 0.01 -0.03 0 -0 0 -0.03 0.01 -0.03 0.01 -0.03 0 -0.03 0.01 -0.03 0 -0 0 -0.03 0.01 -0.03 0.01 -0.03 0 -0.03 0 -0.03 0 0 0 -0.03 0 -0.03 0 -0.03 0 -0.03 0 -0.03 0 -0 0 -0.03 0 -0.03 0 -0.03 0 -0.03 0 -0.03 0 -0.03 0 -0.03 0 -0.03 0 -0.03 0 -0.03 0 -0 0 -0.03 0 -0.03 0 -0.03 0 -0.03 0 -0.03 0 -0.03 0 -0.03 0 -0.03 0 -0.03 0 -0.03 0 -0.03 0 -0.03 0 -0.03 0 -0.03 0 -0.03 0 -0.03 0 -0.03 0 -0.03 0 -0.03 0 -0.03c0,-3.19 -2.55,-5.77 -5.7,-5.77l-0.01 0 -0.02 0 -0.01 0 -0.01 0 -0.01 0 -0.01 0 -0.01 0 -0.02 0 -0.01 0 -0.01 0 -0.01 0 -0 0 -0.02 0 -0.01 0 -0.01 0 -0.01 0 -0.01 0 -0.01 0 -0.02 0 -0.01 0 -0.01 0 -0 0 -0.01 0 -0.01 0 -0.01 0 -0.01 0 -0.02 0 -0.01 0 -0.01 0 -0.01 0 -0.01 0 -0.01 0 -0 0 -0.01 0 -0.03 0 -0.01 0 -0.01 0 -0.01 0 -0.01 0 -0.01 0 -0.01 0 -0.01 0 -0.01 0 -0.01 0 -0.01 0 -0.01 0 -0.01 0 -0.01 0 -0.01 0 -0.01 0 -0.01 0 -0.03 0 -0.01 0 -0.01 0 -0.01 0 -0.01 0 -0.01 0 -0.01 0 -0.01 0 -0.01 0 -0.01 0 -0 0 -0.01 0 -0.01 0 -0.01 0 -0.01 0 -0.01 0 -0.01 0zm60.8 -0.06l-0.02 -0 -0.02 -0 -0.02 -0 -0.02 -0 -0.02 -0 -0.02 -0 -0 -0 -0.01 0 -0.03 -0 -0.02 -0 -0.02 -0 -0.02 -0 -0.02 0 -0.02 -0 -0.01 -0 -0 0 -0.02 0 -0.02 -0 -0.02 0 -0.02 -0 -0.02 0 -0.02 -0 -0.02 0 -0.02 0 -0.01 -0 -0.01 0 -0.02 0 -0.02 0 -0.02 0 -0.02 -0 -0.02 0 -0.02 0 -0.02 0 -0.02 0c-3.15,0 -5.7,2.58 -5.7,5.77l0.01 0.3 0 0.05 0.01 0.1 0 0.04 0.01 0.1 0 0.04 0.01 0.11 0 0.03 0.01 0.11 0 0.03 0.02 0.11 0 0.02 0.02 0.12 0 0.02 0.03 0.12 0 0.01 0.03 0.13 0 0.01 0.03 0.13 0 0 0.04 0.13 0 0 0.04 0.13 0 0.01 0.04 0.12 0 0.01 0.04 0.11 0.01 0.02 0.04 0.11 0.01 0.02 0.04 0.1 0.01 0.03 0.04 0.1 0.01 0.03 0.04 0.09 0.02 0.03 0.04 0.09 0.02 0.04 0.04 0.08 0.02 0.04 0.04 0.07 0.03 0.05 0.04 0.07 0.03 0.05 0.04 0.06 0.04 0.05 0.04 0.06 0.04 0.06 0.04 0.05 0.04 0.06 0.04 0.05 0.05 0.06 0.03 0.04 0.05 0.07 0.03 0.04 0.06 0.07 0.03 0.03 0.06 0.07 0.03 0.03 0.07 0.07 0.02 0.03 0.07 0.07 0.02 0.02 0.08 0.08 0.09 0.08 0.01 0.01 0.01 0.01 0.09 0.08 0.01 0.01 0.09 0.08 0.01 0.01 0.1 0.08 0 0 0.1 0.08 0 0 0.11 0.08 0 0 0.1 0.07 0.01 0.01 0.1 0.07 0.01 0.01 0.1 0.06 0.02 0.01 0.1 0.06 0.02 0.01 0.09 0.05 0.03 0.01 0.09 0.05 0.03 0.02 0.09 0.04 0.04 0.02 0.08 0.04 0.04 0.02 0.08 0.04 0.05 0.02 0.08 0.03 0.05 0.02 0.07 0.03 0.06 0.02 0.07 0.03 0.06 0.02 0.06 0.02 0.07 0.02 0.06 0.02 0.08 0.02 0.14 0.04 0.05 0.01 0.09 0.02 0.04 0.01 0.09 0.02 0.04 0.01 0.1 0.02 0.04 0.01 0.11 0.02 0.03 0.01 0.11 0.01 0.03 0 0.12 0.01 0.02 0 0.12 0.01 0.02 0 0.13 0.01 0.01 0 0.14 0.01 0.01 0 0.14 0c3.15,0 5.7,-2.58 5.7,-5.77l-0 -0.14 0 -0.01 -0 -0.13 -0 -0.02 -0.01 -0.12 -0 -0.03 -0.01 -0.11 -0 -0.03 -0.01 -0.1 -0.01 -0.04 -0.01 -0.09 -0.01 -0.05 -0.01 -0.09 -0.01 -0.06 -0.01 -0.07 -0.01 -0.07 -0.01 -0.07 -0.02 -0.07 -0.01 -0.06 -0.02 -0.08 -0.01 -0.05 -0.02 -0.09 -0.01 -0.04 -0.03 -0.1 -0.01 -0.03 -0.03 -0.1 -0.01 -0.03 -0.04 -0.11 -0.01 -0.02 -0.04 -0.11 -0 -0.01 -0.05 -0.12 -0 -0 -0.05 -0.12 -0 -0.01 -0.05 -0.11 -0.01 -0.01 -0.05 -0.1 -0.01 -0.02 -0.05 -0.1 -0.01 -0.03 -0.05 -0.09 -0.02 -0.03 -0.05 -0.08 -0.02 -0.04 -0.04 -0.07 -0.03 -0.05 -0.04 -0.06 -0.04 -0.05 -0.04 -0.06 -0.04 -0.06 -0.03 -0.05 -0.05 -0.07 -0.03 -0.04 -0.05 -0.07 -0.03 -0.03 -0.06 -0.07 -0.02 -0.03 -0.07 -0.08 -0.02 -0.02 -0.07 -0.08 -0.01 -0.01 -0.08 -0.09 -0.01 -0.01 -0.09 -0.09 -0 -0 -0.09 -0.09 -0 -0 -0.09 -0.09 -0.01 -0.01 -0.09 -0.08 -0.02 -0.01 -0.08 -0.07 -0.02 -0.02 -0.08 -0.06 -0.03 -0.02 -0.07 -0.06 -0.04 -0.03 -0.07 -0.05c-0.1,-0.08 -0.21,-0.15 -0.32,-0.22l-0.07 -0.04 -0.04 -0.03 -0.11 -0.07 -0.08 -0.05 -0.03 -0.02 -0.09 -0.05 -0.02 -0.01 -0.1 -0.05 -0.02 -0.01 -0.11 -0.05 -0.01 -0 -0.12 -0.05 -0 0 -0.24 -0.1 -0.01 -0 -0.11 -0.04 -0.02 -0.01 -0.11 -0.03 -0.03 -0.01 -0.1 -0.03 -0.04 -0.01 -0.09 -0.03 -0.04 -0.01 -0.08 -0.02 -0.05 -0.01 -0.08 -0.02 -0.06 -0.01 -0.07 -0.01 -0.13 -0.02 -0.08 -0.01 -0.05 -0.01 -0.13 -0.02 -0.1 -0.01 -0.04 -0zm-59.84 11.51c3.15,0 5.7,-2.58 5.7,-5.77 0,-3.19 -2.55,-5.77 -5.7,-5.77 -3.15,0 -5.7,2.58 -5.7,5.77 0,3.19 2.55,5.77 5.7,5.77zm59.3 0c3.15,0 5.7,-2.58 5.7,-5.77 0,-3.19 -2.55,-5.77 -5.7,-5.77 -3.15,0 -5.7,2.58 -5.7,5.77 0,3.19 2.55,5.77 5.7,5.77zm-60.26 -3.79l0 -22.04c0,0 -3.21,-38.66 31.28,-38.66 34.49,0 29.52,37.04 29.52,37.04l0 21.84"/>
 </g>
</svg>
