<?xml version="1.0" encoding="UTF-8"?>
<!DOCTYPE svg PUBLIC "-//W3C//DTD SVG 1.1//EN" "http://www.w3.org/Graphics/SVG/1.1/DTD/svg11.dtd">
<!-- Creator: CorelDRAW 2018 (64-Bit Evaluation Version) -->
<svg xmlns="http://www.w3.org/2000/svg" xml:space="preserve" width="201px" height="48px" version="1.1" shape-rendering="geometricPrecision" text-rendering="geometricPrecision" image-rendering="optimizeQuality" fill-rule="evenodd" clip-rule="evenodd"
viewBox="0 0 194.39 46.36"
 xmlns:xlink="http://www.w3.org/1999/xlink">
 <g id="Layer_x0020_1">
  <metadata id="CorelCorpID_0Corel-Layer"/>
  <g id="layer1">
   <g id="g10305">
    <path id="path2268" fill="#FF9900" d="M194.39 23.18c0.01,12.8 -10.36,23.18 -23.16,23.18 -12.8,0 -23.18,-10.37 -23.18,-23.17 0,0 0,-0.01 0,-0.01 -0.01,-12.8 10.37,-23.18 23.17,-23.18 12.79,0 23.17,10.37 23.17,23.17 0,0 0,0.01 0,0.01z"/>
    <path id="path1350" fill="#CC0000" d="M139.99 0.01c-12.73,0.08 -23.03,10.43 -23.03,23.17 0,12.79 10.38,23.17 23.18,23.17 6,0 11.47,-2.28 15.59,-6.03 0,0 0,-0.01 0,-0.01l0 0c0.85,-0.76 1.63,-1.59 2.36,-2.48l-4.75 0c-0.64,-0.76 -1.21,-1.56 -1.73,-2.38l8.19 0c0.5,-0.8 0.95,-1.63 1.35,-2.49l-10.89 0c-0.37,-0.79 -0.7,-1.6 -0.97,-2.43l12.83 0c0.77,-2.31 1.19,-4.78 1.19,-7.35 0,-1.7 -0.19,-3.36 -0.53,-4.96l-14.17 0c0.17,-0.83 0.4,-1.64 0.66,-2.44l12.83 0c-0.28,-0.85 -0.62,-1.68 -1,-2.48l-10.84 0c0.39,-0.83 0.83,-1.65 1.33,-2.43l8.18 0c-0.55,-0.87 -1.15,-1.7 -1.8,-2.48l-4.56 0c0.7,-0.83 1.48,-1.62 2.32,-2.35 -4.12,-3.75 -9.59,-6.03 -15.59,-6.03 -0.05,0 -0.1,0 -0.15,0z"/>
    <g>
     <path id="use9412" fill="#FCB340" d="M192.07 35.29c0.13,0 0.25,0.04 0.37,0.1 0.12,0.07 0.21,0.16 0.28,0.28 0.07,0.12 0.1,0.24 0.1,0.37 0,0.13 -0.03,0.26 -0.1,0.38 -0.07,0.12 -0.16,0.21 -0.28,0.27 -0.12,0.07 -0.24,0.1 -0.37,0.1 -0.13,0 -0.25,-0.03 -0.37,-0.1 -0.12,-0.06 -0.21,-0.15 -0.28,-0.27 -0.07,-0.12 -0.1,-0.25 -0.1,-0.38 0,-0.13 0.03,-0.25 0.1,-0.37 0.07,-0.12 0.16,-0.21 0.28,-0.28 0.12,-0.06 0.24,-0.1 0.37,-0.1l0 0zm0 0.13c-0.1,0 -0.21,0.03 -0.31,0.08 -0.1,0.05 -0.17,0.13 -0.23,0.23 -0.06,0.1 -0.09,0.21 -0.09,0.31 0,0.11 0.03,0.22 0.09,0.32 0.05,0.09 0.13,0.17 0.23,0.23 0.1,0.05 0.2,0.08 0.31,0.08 0.11,0 0.21,-0.03 0.31,-0.08 0.1,-0.06 0.18,-0.14 0.23,-0.23 0.06,-0.1 0.08,-0.21 0.08,-0.32 0,-0.1 -0.02,-0.21 -0.08,-0.31 -0.06,-0.1 -0.13,-0.18 -0.23,-0.23 -0.1,-0.05 -0.21,-0.08 -0.31,-0.08l0 0zm-0.33 1.04l0 -0.81 0.28 0c0.09,0 0.16,0.01 0.2,0.02 0.05,0.02 0.08,0.05 0.11,0.08 0.02,0.04 0.03,0.08 0.03,0.12 0,0.06 -0.02,0.11 -0.06,0.15 -0.04,0.05 -0.1,0.07 -0.17,0.08 0.03,0.01 0.05,0.02 0.07,0.04 0.04,0.03 0.07,0.08 0.12,0.16l0.1 0.16 -0.16 0 -0.07 -0.13c-0.06,-0.1 -0.1,-0.16 -0.14,-0.19 -0.02,-0.01 -0.06,-0.02 -0.1,-0.02l-0.08 0 0 0.34 -0.13 0 0 0zm0.13 -0.46l0.16 0c0.08,0 0.13,-0.01 0.15,-0.03 0.03,-0.02 0.05,-0.05 0.05,-0.09 0,-0.02 -0.01,-0.04 -0.02,-0.06 -0.02,-0.02 -0.04,-0.04 -0.06,-0.04 -0.02,-0.01 -0.07,-0.02 -0.13,-0.02l-0.15 0 0 0.24 0 0zm0 0l0 0 0 0z"/>
    </g>
   </g>
   <g id="g16480">
    <g id="g13802">
     <path id="path13804" fill="#000066" d="M147.83 29.83l0.3 -2.1c-0.16,0 -0.41,0.07 -0.63,0.07 -0.86,0 -0.97,-0.46 -0.9,-0.79l0.85 -4.22 1.3 0 0.27 -2.38 -1.23 0 0.25 -1.44 -2.57 0c-0.06,0.05 -1.46,8.11 -1.46,9.09 0,1.46 0.82,2.1 1.97,2.09 0.9,-0.01 1.6,-0.26 1.85,-0.32z"/>
     <path id="path13806" fill="#000066" d="M148.61 25.83c0,3.49 2.3,4.31 4.26,4.31 1.81,0 2.76,-0.41 2.76,-0.41l0.43 -2.39c0,0 -1.53,0.63 -2.77,0.63 -2.65,0 -2.18,-1.98 -2.18,-1.98l5.09 0.02c0,0 0.32,-1.6 0.32,-2.25 0,-1.63 -0.89,-3.63 -3.6,-3.63 -2.48,0.01 -4.31,2.68 -4.31,5.7zm4.32 -3.49c1.4,0 1.14,1.57 1.14,1.7l-2.74 0c0,-0.17 0.26,-1.7 1.6,-1.7z"/>
     <path id="path13808" fill="#000066" d="M168.56 29.83l0.44 -2.69c0,0 -1.21,0.6 -2.04,0.6 -1.75,0 -2.45,-1.33 -2.45,-2.77 0,-2.91 1.5,-4.51 3.18,-4.51 1.26,0 2.26,0.7 2.26,0.7l0.41 -2.61c0,0 -1.19,-0.86 -2.48,-0.87 -3.85,-0.01 -6.06,2.67 -6.06,7.32 0,3.07 1.63,5.17 4.58,5.17 0.83,0 2.16,-0.34 2.16,-0.34z"/>
     <path id="path13810" fill="#000066" d="M134.25 20.17c-1.69,0 -2.98,0.55 -2.98,0.55l-0.36 2.12c0,0 1.07,-0.43 2.69,-0.43 0.92,0 1.59,0.1 1.59,0.85 0,0.45 -0.08,0.62 -0.08,0.62 0,0 -0.73,-0.06 -1.07,-0.06 -2.4,0 -4.37,0.91 -4.37,3.65 0,2.17 1.47,2.66 2.38,2.66 1.74,0 2.43,-1.09 2.47,-1.1l-0.02 0.91c0,0 2.17,0 2.17,0l0.97 -6.79c0,-2.88 -2.51,-2.98 -3.39,-2.98zm0.38 5.52c0.05,0.42 -0.11,2.38 -1.59,2.38 -0.77,0 -0.97,-0.59 -0.97,-0.93 0,-0.68 0.37,-1.49 2.18,-1.49 0.42,0 0.31,0.03 0.38,0.04z"/>
     <path id="path13812" fill="#000066" d="M139.95 30.08c0.56,0 3.74,0.15 3.74,-3.13 0,-3.07 -2.95,-2.46 -2.95,-3.69 0,-0.62 0.48,-0.81 1.36,-0.81 0.35,0 1.69,0.11 1.69,0.11l0.31 -2.18c0,0 -0.87,-0.19 -2.28,-0.19 -1.82,0 -3.68,0.73 -3.68,3.22 0,2.83 3.09,2.54 3.09,3.73 0,0.8 -0.86,0.86 -1.53,0.86 -1.15,0 -2.18,-0.39 -2.19,-0.37l-0.33 2.15c0.06,0.02 0.7,0.3 2.77,0.3z"/>
     <path id="path13814" fill="#000066" d="M188.91 18.2l-0.45 3.32c0,0 -0.92,-1.28 -2.38,-1.28 -2.73,0 -4.14,2.72 -4.14,5.86 0,2.02 1,4 3.06,4 1.47,0 2.29,-1.03 2.29,-1.03l-0.1 0.88 2.4 0 1.88 -11.73 -2.56 -0.02zm-1.06 6.46c0,1.3 -0.64,3.04 -1.98,3.04 -0.89,0 -1.31,-0.74 -1.31,-1.91 0,-1.92 0.86,-3.18 1.95,-3.18 0.88,0 1.34,0.61 1.34,2.05z"/>
     <polygon id="path13816" fill="#000066" points="120.89,29.96 122.4,21.1 122.62,29.96 124.32,29.96 127.49,21.1 126.08,29.96 128.61,29.96 130.55,18.21 126.54,18.18 124.16,25.37 124.09,18.21 120.41,18.21 118.44,29.96 120.89,29.96 "/>
     <path id="path13818" fill="#000066" d="M158.91 29.97c0.72,-4.08 0.97,-7.3 3.07,-6.64 0.3,-1.58 1.02,-2.95 1.34,-3.62 0,0 -0.1,-0.16 -0.75,-0.16 -1.1,0 -2.58,2.25 -2.58,2.25l0.22 -1.39 -2.29 0 -1.54 9.56 2.53 0 0 0z"/>
     <g id="use14699">
      <path id="path13810_1_" fill="#000066" d="M173.73 20.17c-1.7,0 -2.99,0.55 -2.99,0.55l-0.36 2.12c0,0 1.07,-0.43 2.69,-0.43 0.92,0 1.59,0.1 1.59,0.85 0,0.45 -0.08,0.62 -0.08,0.62 0,0 -0.73,-0.06 -1.06,-0.06 -2.41,0 -4.38,0.91 -4.38,3.65 0,2.17 1.47,2.66 2.38,2.66 1.74,0 2.43,-1.09 2.47,-1.1l-0.02 0.91 2.18 0 0.96 -6.79c0,-2.88 -2.51,-2.98 -3.38,-2.98zm0.37 5.52c0.05,0.42 -0.11,2.38 -1.59,2.38 -0.77,0 -0.97,-0.59 -0.97,-0.93 0,-0.68 0.37,-1.49 2.18,-1.49 0.42,0 0.31,0.03 0.38,0.04z"/>
     </g>
     <path id="use14701" fill="#000066" d="M179.62 29.97c0.39,-3 1.12,-7.22 3.06,-6.64 0.3,-1.58 0.01,-1.57 -0.63,-1.57 -1.11,0 -1.35,0.04 -1.35,0.04l0.22 -1.39 -2.3 0 -1.54 9.56 2.54 0 0 0z"/>
    </g>
    <g id="g10289">
     <path id="path4157" fill="white" d="M148.47 29.08l0.31 -2.1c-0.17,0 -0.42,0.07 -0.64,0.07 -0.86,0 -0.95,-0.45 -0.9,-0.79l0.7 -4.28 1.3 0 0.32 -2.32 -1.23 0 0.25 -1.44 -2.47 0c-0.05,0.05 -1.46,8.11 -1.46,9.09 0,1.46 0.82,2.1 1.97,2.09 0.9,0 1.6,-0.25 1.85,-0.32z"/>
     <path id="path4155" fill="white" d="M149.25 25.08c0,3.49 2.3,4.32 4.26,4.32 1.81,0 2.61,-0.41 2.61,-0.41l0.43 -2.38c0,0 -1.37,0.61 -2.62,0.61 -2.65,0 -2.18,-1.98 -2.18,-1.98l5.01 0c0,0 0.33,-1.6 0.33,-2.25 0,-1.62 -0.81,-3.6 -3.52,-3.6 -2.48,0 -4.32,2.67 -4.32,5.69zm4.33 -3.48c1.39,0 1.13,1.56 1.13,1.69l-2.74 0c0,-0.16 0.26,-1.69 1.61,-1.69z"/>
     <path id="path4151" fill="white" d="M169.2 29.08l0.44 -2.69c0,0 -1.21,0.61 -2.04,0.61 -1.75,0 -2.45,-1.34 -2.45,-2.78 0,-2.91 1.51,-4.51 3.18,-4.51 1.26,0 2.27,0.7 2.27,0.7l0.4 -2.61c0,0 -1.5,-0.61 -2.78,-0.61 -2.85,0 -5.62,2.48 -5.62,7.12 0,3.07 1.5,5.11 4.44,5.11 0.84,0 2.16,-0.34 2.16,-0.34z"/>
     <path id="path4149" fill="white" d="M134.9 19.42c-1.69,0 -2.99,0.55 -2.99,0.55l-0.36 2.12c0,0 1.07,-0.43 2.69,-0.43 0.92,0 1.59,0.1 1.59,0.85 0,0.45 -0.08,0.62 -0.08,0.62 0,0 -0.73,-0.06 -1.06,-0.06 -2.14,0 -4.38,0.91 -4.38,3.66 0,2.16 1.47,2.66 2.38,2.66 1.75,0 2.5,-1.13 2.54,-1.14l-0.09 0.95 2.18 0 0.97 -6.8c0,-2.88 -2.52,-2.98 -3.39,-2.98zm0.53 5.54c0.04,0.41 -0.26,2.36 -1.75,2.36 -0.77,0 -0.96,-0.59 -0.96,-0.93 0,-0.68 0.36,-1.49 2.17,-1.49 0.42,0 0.47,0.05 0.54,0.06z"/>
     <path id="path4145" fill="white" d="M140.6 29.34c0.55,0 3.73,0.14 3.73,-3.14 0,-3.07 -2.94,-2.46 -2.94,-3.69 0,-0.62 0.48,-0.81 1.35,-0.81 0.35,0 1.69,0.11 1.69,0.11l0.31 -2.18c0,0 -0.87,-0.19 -2.28,-0.19 -1.82,0 -3.67,0.73 -3.67,3.22 0,2.83 3.09,2.54 3.09,3.73 0,0.8 -0.87,0.86 -1.53,0.86 -1.15,0 -2.19,-0.39 -2.19,-0.37l-0.33 2.15c0.06,0.02 0.7,0.31 2.77,0.31z"/>
     <path id="path4139" fill="white" d="M189.64 17.47l-0.53 3.3c0,0 -0.93,-1.28 -2.38,-1.28 -2.27,0 -4.15,2.73 -4.15,5.86 0,2.02 1.01,4 3.06,4 1.48,0 2.3,-1.03 2.3,-1.03l-0.11 0.88 2.4 0 1.88 -11.73 -2.47 0zm-1.15 6.44c0,1.3 -0.64,3.04 -1.98,3.04 -0.89,0 -1.3,-0.74 -1.3,-1.91 0,-1.92 0.86,-3.18 1.94,-3.18 0.89,0 1.34,0.61 1.34,2.05z"/>
     <polygon id="path4133" fill="white" points="121.54,29.21 123.04,20.35 123.26,29.21 124.96,29.21 128.13,20.35 126.73,29.21 129.25,29.21 131.2,17.46 127.29,17.46 124.86,24.67 124.73,17.46 121.13,17.46 119.16,29.21 "/>
     <path id="path4131" fill="white" d="M159.55 29.23c0.72,-4.09 0.86,-7.4 2.57,-6.8 0.3,-1.58 0.59,-2.19 0.92,-2.86 0,0 -0.16,-0.03 -0.48,-0.03 -1.1,0 -1.92,1.51 -1.92,1.51l0.22 -1.39 -2.3 0 -1.54 9.57 2.53 0z"/>
     <g id="use8523">
      <path id="path4149_1_" fill="white" d="M174.9 19.42c-1.7,0 -2.99,0.55 -2.99,0.55l-0.36 2.12c0,0 1.07,-0.43 2.69,-0.43 0.92,0 1.59,0.1 1.59,0.85 0,0.45 -0.08,0.62 -0.08,0.62 0,0 -0.73,-0.06 -1.06,-0.06 -2.14,0 -4.38,0.91 -4.38,3.66 0,2.16 1.47,2.66 2.38,2.66 1.74,0 2.49,-1.13 2.53,-1.14l-0.08 0.95c0,0 2.17,0 2.17,0l0.97 -6.8c0,-2.88 -2.51,-2.98 -3.38,-2.98zm0.52 5.54c0.05,0.41 -0.26,2.36 -1.74,2.36 -0.77,0 -0.97,-0.59 -0.97,-0.93 0,-0.68 0.37,-1.49 2.18,-1.49 0.42,0 0.46,0.05 0.53,0.06z"/>
     </g>
     <g id="use8525">
      <path id="path4131_1_" fill="white" d="M180.27 29.23c0.72,-4.09 0.85,-7.4 2.56,-6.8 0.3,-1.58 0.59,-2.19 0.92,-2.86 0,0 -0.15,-0.03 -0.47,-0.03 -1.11,0 -1.93,1.51 -1.93,1.51l0.22 -1.39 -2.29 0 -1.54 9.57 2.53 0z"/>
     </g>
     <g>
      <path id="text9407" fill="white" d="M192.06 27.75c0.13,0 0.25,0.03 0.37,0.1 0.12,0.06 0.21,0.15 0.28,0.27 0.07,0.12 0.1,0.25 0.1,0.38 0,0.13 -0.03,0.25 -0.1,0.37 -0.07,0.12 -0.16,0.21 -0.28,0.28 -0.12,0.07 -0.24,0.1 -0.37,0.1 -0.13,0 -0.26,-0.03 -0.37,-0.1 -0.12,-0.07 -0.22,-0.16 -0.28,-0.28 -0.07,-0.12 -0.1,-0.24 -0.1,-0.37 0,-0.13 0.03,-0.26 0.1,-0.38 0.07,-0.12 0.16,-0.21 0.28,-0.27 0.12,-0.07 0.24,-0.1 0.37,-0.1l0 0zm0 0.12c-0.1,0 -0.21,0.03 -0.31,0.09 -0.1,0.05 -0.18,0.13 -0.23,0.23 -0.06,0.1 -0.09,0.2 -0.09,0.31 0,0.11 0.03,0.21 0.09,0.31 0.05,0.1 0.13,0.18 0.23,0.23 0.1,0.06 0.2,0.08 0.31,0.08 0.11,0 0.21,-0.02 0.31,-0.08 0.1,-0.05 0.18,-0.13 0.23,-0.23 0.06,-0.1 0.08,-0.2 0.08,-0.31 0,-0.11 -0.02,-0.21 -0.08,-0.31 -0.06,-0.1 -0.13,-0.18 -0.23,-0.23 -0.1,-0.06 -0.2,-0.09 -0.31,-0.09l0 0zm-0.33 1.04l0 -0.8 0.28 0c0.09,0 0.16,0 0.2,0.02 0.05,0.01 0.08,0.04 0.11,0.08 0.02,0.04 0.03,0.07 0.03,0.12 0,0.05 -0.02,0.11 -0.06,0.15 -0.04,0.04 -0.1,0.07 -0.17,0.07 0.03,0.01 0.05,0.03 0.07,0.05 0.03,0.03 0.07,0.08 0.12,0.16l0.1 0.15 -0.16 0 -0.07 -0.12c-0.06,-0.1 -0.1,-0.17 -0.14,-0.19 -0.02,-0.02 -0.05,-0.03 -0.1,-0.03l-0.08 0 0 0.34 -0.13 0 0 0zm0.13 -0.45l0.16 0c0.08,0 0.13,-0.01 0.15,-0.03 0.03,-0.03 0.05,-0.06 0.05,-0.09 0,-0.03 -0.01,-0.05 -0.02,-0.07 -0.02,-0.02 -0.04,-0.03 -0.06,-0.04 -0.02,-0.01 -0.07,-0.01 -0.13,-0.01l-0.15 0 0 0.24 0 0zm0 0l0 0 0 0z"/>
     </g>
    </g>
   </g>
  </g>
  <g id="g10">
   <g id="g4163">
    <g id="g12">
     <polygon id="path14" fill="#2B3894" points="41.25,41.58 47.18,4.87 56.66,4.87 50.73,41.58 "/>
    </g>
    <g id="g16">
     <path id="path18" fill="#2B3894" d="M85.11 5.78c-1.88,-0.74 -4.82,-1.55 -8.5,-1.55 -9.37,0 -15.96,4.99 -16.02,12.12 -0.06,5.27 4.71,8.22 8.3,9.97 3.7,1.8 4.94,2.95 4.92,4.56 -0.02,2.45 -2.95,3.58 -5.67,3.58 -3.8,0 -5.81,-0.55 -8.93,-1.92l-1.22 -0.59 -1.32 8.22c2.21,1.02 6.3,1.91 10.56,1.95 9.96,0 16.43,-4.92 16.5,-12.53 0.04,-4.19 -2.49,-7.36 -7.96,-9.98 -3.31,-1.7 -5.34,-2.83 -5.32,-4.55 0,-1.52 1.72,-3.16 5.43,-3.16 3.1,-0.05 5.34,0.67 7.09,1.41l0.85 0.42 1.29 -7.95z"/>
    </g>
    <g id="g20">
     <path id="path22" fill="#2B3894" d="M97.73 28.57c0.78,-2.11 3.77,-10.26 3.77,-10.26 -0.05,0.09 0.78,-2.13 1.26,-3.51l0.64 3.17c0,0 1.82,8.76 2.2,10.6 -1.48,0 -6.02,0 -7.87,0zm11.69 -23.66l-7.33 0c-2.27,0 -3.97,0.65 -4.96,3.04l-14.08 33.64 9.96 0c0,0 1.62,-4.52 1.99,-5.52 1.08,0 10.76,0.02 12.14,0.02 0.28,1.28 1.15,5.5 1.15,5.5l8.8 0 -7.67 -36.68z"/>
    </g>
    <g id="g24">
     <path id="path26" fill="#2B3894" d="M33.3 4.91l-9.28 25.02 -0.99 -5.09c-1.73,-5.86 -7.11,-12.21 -13.13,-15.39l8.49 32.1 10.03 -0.01 14.92 -36.63 -10.04 0z"/>
    </g>
    <g id="g28">
     <path id="path30" fill="#F79510" d="M15.41 4.88l-15.28 0 -0.13 0.76c11.89,3.04 19.76,10.38 23.03,19.2l-3.32 -16.86c-0.58,-2.33 -2.24,-3.02 -4.3,-3.1z"/>
    </g>
    <g id="g32">
     <path id="path34" fill="#2B3894" d="M119.79 39.18l0.45 0c0.31,0 0.38,-0.18 0.38,-0.33 0,-0.26 -0.17,-0.32 -0.43,-0.32l-0.4 0 0 0.65zm-0.39 -0.93l0.92 0c0.22,0 0.69,0.05 0.69,0.6 0,0.14 -0.04,0.34 -0.35,0.48l0 0.01c0.27,0.04 0.28,0.3 0.3,0.5 0.02,0.32 0,0.38 0.08,0.5l-0.4 0c-0.08,-0.08 -0.06,-0.14 -0.08,-0.48 0,-0.19 -0.02,-0.39 -0.45,-0.39l-0.32 0 0 0.87 -0.39 0 0 -2.09 0 0zm0.76 2.83c0.95,0 1.7,-0.79 1.7,-1.77 0,-0.99 -0.75,-1.78 -1.7,-1.78 -0.95,0 -1.69,0.79 -1.69,1.78 0,0.98 0.74,1.77 1.69,1.77zm0 -3.87c1.18,0 2.1,0.94 2.1,2.1 0,1.15 -0.92,2.09 -2.1,2.09 -1.17,0 -2.09,-0.94 -2.09,-2.09 0,-1.16 0.92,-2.1 2.09,-2.1z"/>
    </g>
   </g>
  </g>
 </g>
</svg>
